<svg width="112" height="24" viewBox="0 0 112 24" version="1.1" xmlns="http://www.w3.org/2000/svg"><g id="Page-1" stroke="none" stroke-width="1" fill="none" fill-rule="evenodd"><g id="drift-logo" fill="#111" fill-rule="nonzero"><path d="M36.539 23.18l-2.969-6.91h-2.512v6.908h-6.68V.514h11.818c5.196 0 7.936 3.54 7.936 7.764 0 3.883-2.227 5.995-3.996 6.851l3.996 7.993h-7.593v.057zm.8-14.445c0-1.541-1.086-2.227-2.17-2.227h-4.054v4.51h4.054c1.141 0 2.17-.684 2.17-2.283z" id="Shape"/><path id="Path" d="M62.915 23.18V.513h16.842v5.994H69.652v3.026h9.877v5.995h-9.877v7.65z"/><path d="M0 23.18V.513h9.934c7.022 0 12.218 4.053 12.218 11.304 0 7.25-5.196 11.361-12.16 11.361H0zm15.3-11.362c0-3.083-1.712-5.31-5.309-5.31H6.737v10.677h3.197c3.368 0 5.367-2.512 5.367-5.367z" id="Shape"/><path id="Path" d="M88.093 23.18V6.507h-5.938V.514h18.612v5.994h-5.994V23.18z"/><path d="M107.067 5.684v-4.18l1.65 4.18h.175l1.65-4.18v4.18h.616V.632h-.946l-1.408 3.674-1.407-3.674h-.946v5.052h.616zm-2.772 0V1.23h1.364V.632h-3.343v.597h1.363v4.455h.616z" id="™"/><path d="M60.803.514h.285c.343.057.457.4.286.628-.057.057-.057.114-.114.171l-5.71 6.451-.17.172c-.23.285 0 .628.399.685h2.283c.4.057.571.4.4.685l-.171.171-4.168 4.739-.171.171c-.171.286.057.628.4.628h1.541a.6.6 0 01.514.286c.057.17.057.342-.114.456l-.115.115-9.705 7.307-.171.172c-.115.057-.229.057-.286 0a.433.433 0 01-.114-.229c0-.057.057-.171.057-.171l2.683-5.48.057-.172c.172-.343 0-.685-.4-.742h-2.282c-.342-.057-.514-.343-.4-.571.058-.057.115-.172.115-.172l3.31-5.537s.058-.058.058-.115c.171-.342-.057-.628-.457-.628h-2.169a.5.5 0 01-.514-.4c0-.113 0-.228.114-.342l1.028-1.77 3.368-5.88.057-.114c.172-.286.457-.457.857-.457l9.42-.057z" id="Path"/></g></g></svg>